<svg width="21" height="21" viewBox="0 0 21 21" fill="none" xmlns="http://www.w3.org/2000/svg">
<path d="M20.5999 8.0918H14.8672V20.0431C15.1587 20.1014 16.8672 19.7597 17.685 19.5815C20.0752 18.6682 20.6242 16.0107 20.5999 14.7962V12.7557V8.0918Z" fill="#28ACE2"/>
<path d="M5.7813 0.950195H11.4169V4.71533H6.14567C4.43557 4.67646 3.97566 6.26997 3.95946 7.07158V8.48047V14.2132C4.0372 15.0488 4.49387 15.7273 4.71249 15.9622C5.12058 16.2148 5.70843 16.3427 5.95134 16.3751H7.28736H12.7043C12.9375 16.3751 13.433 16.2294 13.6517 16.1565C13.8654 16.1565 14.178 15.8164 14.3075 15.6464V19.9945H5.17402C4.41614 19.9751 3.25502 19.6301 2.7692 19.4601C1.71982 19.1492 0.955454 18.0026 0.704445 17.4682C0.335218 17.0407 0.0809706 15.2496 0 14.4075V7.07158L0.145747 5.6384C0.16518 3.90886 1.20646 2.65058 1.72467 2.23763C2.42426 1.42144 4.72059 1.03926 5.7813 0.950195Z" fill="#01589A"/>
<rect x="14.8672" y="0.950195" width="5.73272" height="5.05257" rx="1.36031" fill="#28ACE2"/>
</svg>
