<svg width="48" height="46" viewBox="0 0 48 46" fill="none" xmlns="http://www.w3.org/2000/svg">
<path d="M47.6854 17.4252H34.4141V45.0926C35.0889 45.2275 39.044 44.4365 40.9373 44.0241C46.4708 41.9097 47.7417 35.7576 47.6854 32.9459V28.2222V17.4252Z" fill="white"/>
<path d="M13.3838 0.892212H26.4303V9.60857H14.2273C10.2684 9.5186 9.20373 13.2076 9.16624 15.0633V18.3249V31.5963C9.34619 33.5308 10.4034 35.1016 10.9095 35.6452C11.8542 36.23 13.2151 36.5262 13.7775 36.6012H16.8704H29.4107C29.9505 36.6012 31.0977 36.2638 31.6038 36.0951C32.0987 36.0951 32.8222 35.3078 33.1222 34.9141V44.9801H11.978C10.2234 44.9351 7.53543 44.1366 6.41074 43.743C3.98141 43.0232 2.21189 40.3689 1.6308 39.1317C0.776037 38.142 0.187449 33.9956 0 32.0462V15.0633L0.337407 11.7455C0.382395 7.74158 2.79298 4.82863 3.99265 3.87264C5.61221 1.98316 10.9283 1.09841 13.3838 0.892212Z" fill="white"/>
<rect x="34.4141" y="0.892212" width="13.2714" height="11.6968" rx="3.14914" fill="white"/>
</svg>
