<svg width="81" height="81" viewBox="0 0 81 81" fill="none" xmlns="http://www.w3.org/2000/svg">
<path d="M74.25 40.5C74.25 59.1395 59.1395 74.25 40.5 74.25C21.8604 74.25 6.75 59.1395 6.75 40.5C6.75 21.8604 21.8604 6.75 40.5 6.75C59.1395 6.75 74.25 21.8604 74.25 40.5Z" fill="#4182B3"/>
<path fill-rule="evenodd" clip-rule="evenodd" d="M40.5 24.4688C41.8979 24.4688 43.0312 25.602 43.0312 27V39.4514L50.7273 47.1477C51.7158 48.1363 51.7158 49.7387 50.7273 50.7273C49.7387 51.7158 48.1363 51.7158 47.1477 50.7273L38.7102 42.2898C38.2354 41.8152 37.9688 41.1713 37.9688 40.5V27C37.9688 25.602 39.1021 24.4688 40.5 24.4688Z" fill="white"/>
</svg>
