<svg width="80" height="81" viewBox="0 0 80 81" fill="none" xmlns="http://www.w3.org/2000/svg">
<g clip-path="url(#clip0_4121_5922)">
<path d="M51.4959 14.4868C49.789 15.3606 47.8603 15.7057 45.9563 15.478L42.9166 18.5176L44.855 20.1806C56.0995 21.293 64.018 26.0947 64.018 30.4449C64.018 33.5507 59.9761 36.8877 53.5884 38.9471C51.9144 40.4449 49.7228 41.3921 47.3109 41.4361L42.5973 46.0176C42.5862 46.5242 42.5312 47.0088 42.4431 47.4934C50.2074 47.174 57.0025 45.4009 61.9585 42.6035C62.0686 42.7797 62.1898 42.9449 62.3329 43.0991C63.4453 44.2996 64.018 45.511 64.018 46.6894C64.018 51.6454 53.7426 57.185 39.9871 57.185C26.2316 57.185 15.9673 51.6233 15.9673 46.6674C15.9673 45.5441 16.4849 44.3877 17.4981 43.2423C17.6854 43.022 17.8396 42.7907 17.9607 42.5374C19.5246 43.4295 21.2977 44.2004 23.214 44.8833C23.4453 42.5154 24.5356 40.4009 26.1545 38.837C19.899 36.7775 15.9673 33.4846 15.9673 30.4229C15.9673 27.7247 19.04 24.8502 24.051 22.7907C23.4609 21.5213 23.1564 20.1378 23.1589 18.7379C23.1589 17.7137 23.3241 16.7335 23.6105 15.8084C14.921 18.7709 9.35938 24.0903 9.35938 30.4229V63.3855C9.35938 73.1432 22.5312 80.489 39.9981 80.489C57.4651 80.489 70.6369 73.1322 70.6369 63.3855V30.4229C70.6369 22.967 62.9277 16.9207 51.4959 14.4868ZM39.9981 73.8921C26.2426 73.8921 15.9673 68.3524 15.9673 63.3965C15.9673 62.2731 16.4849 61.1167 17.4981 59.9714C17.7845 59.641 17.9937 59.2775 18.1369 58.8811C23.6105 61.9427 31.2757 63.7709 39.9981 63.7709C48.6876 63.7709 56.3087 61.9537 61.7823 58.9251C61.9255 59.2335 62.1017 59.5308 62.344 59.7952C63.4563 60.9956 64.029 62.207 64.029 63.3855C64.029 68.3524 53.7536 73.8921 39.9981 73.8921ZM47.1127 26.3811C46.584 26.3811 46.0885 26.4802 45.6149 26.6233L38.0047 20.0925C38.1149 19.663 38.192 19.2225 38.192 18.7489C38.192 18.2203 38.0929 17.7247 37.9497 17.2511L44.6788 10.522C45.4166 10.9075 46.2316 11.1388 47.1127 11.1388C48.5226 11.1359 49.8739 10.5745 50.8708 9.57754C51.8678 8.58059 52.4291 7.22928 52.4321 5.81938C52.4291 4.40949 51.8678 3.05817 50.8708 2.06123C49.8739 1.06428 48.5226 0.50291 47.1127 0.5C45.7028 0.50291 44.3515 1.06428 43.3545 2.06123C42.3576 3.05817 41.7962 4.40949 41.7933 5.81938C41.7933 5.9185 41.8153 6.00661 41.8263 6.09471L34.2823 13.6388C33.8307 13.5176 33.3682 13.4295 32.8836 13.4295C29.9541 13.4295 27.5642 15.8194 27.5642 18.7489C27.5642 21.6784 29.9541 24.0683 32.8836 24.0683C33.4233 24.0683 33.9409 23.9582 34.4365 23.815L42.0025 30.3128C41.8814 30.7533 41.7933 31.2159 41.7933 31.7004C41.7933 32.2291 41.8924 32.7357 42.0466 33.2203L34.3153 40.7423C33.8528 40.6101 33.3792 40.522 32.8836 40.522C29.9541 40.522 27.5642 42.9119 27.5642 45.8414C27.5642 48.7709 29.9541 51.1608 32.8836 51.1608C34.2935 51.1579 35.6448 50.5965 36.6418 49.5996C37.6387 48.6026 38.2001 47.2513 38.203 45.8414C38.203 45.3238 38.1039 44.8392 37.9717 44.3767L45.736 36.8216C46.1766 36.9427 46.6391 37.0308 47.1127 37.0308C48.5249 37.0308 49.8793 36.4698 50.8779 35.4712C51.8766 34.4726 52.4376 33.1182 52.4376 31.7059C52.4376 30.2937 51.8766 28.9393 50.8779 27.9407C49.8793 26.9421 48.5249 26.3811 47.1127 26.3811ZM47.1237 4.04626C47.594 4.04626 48.045 4.23307 48.3775 4.56559C48.71 4.89812 48.8968 5.34912 48.8968 5.81938C48.8968 6.28965 48.71 6.74065 48.3775 7.07317C48.045 7.4057 47.594 7.59251 47.1237 7.59251C46.6534 7.59251 46.2024 7.4057 45.8699 7.07317C45.5374 6.74065 45.3506 6.28965 45.3506 5.81938C45.3506 5.34912 45.5374 4.89812 45.8699 4.56559C46.2024 4.23307 46.6534 4.04626 47.1237 4.04626ZM32.8946 20.522C32.4244 20.522 31.9734 20.3352 31.6408 20.0027C31.3083 19.6702 31.1215 19.2192 31.1215 18.7489C31.1215 18.2786 31.3083 17.8276 31.6408 17.4951C31.9734 17.1626 32.4244 16.9758 32.8946 16.9758C33.3649 16.9758 33.8159 17.1626 34.1484 17.4951C34.4809 17.8276 34.6677 18.2786 34.6677 18.7489C34.6677 19.2192 34.4809 19.6702 34.1484 20.0027C33.8159 20.3352 33.3649 20.522 32.8946 20.522ZM32.8946 47.5925C32.4244 47.5925 31.9734 47.4057 31.6408 47.0732C31.3083 46.7406 31.1215 46.2896 31.1215 45.8194C31.1215 45.3491 31.3083 44.8981 31.6408 44.5656C31.9734 44.2331 32.4244 44.0463 32.8946 44.0463C33.3649 44.0463 33.8159 44.2331 34.1484 44.5656C34.4809 44.8981 34.6677 45.3491 34.6677 45.8194C34.6677 46.2896 34.4809 46.7406 34.1484 47.0732C33.8159 47.4057 33.3649 47.5925 32.8946 47.5925ZM47.1237 33.4736C46.6534 33.4736 46.2024 33.2868 45.8699 32.9542C45.5374 32.6217 45.3506 32.1707 45.3506 31.7004C45.3506 31.2302 45.5374 30.7792 45.8699 30.4466C46.2024 30.1141 46.6534 29.9273 47.1237 29.9273C47.594 29.9273 48.045 30.1141 48.3775 30.4466C48.71 30.7792 48.8968 31.2302 48.8968 31.7004C48.8968 32.1707 48.71 32.6217 48.3775 32.9542C48.045 33.2868 47.594 33.4736 47.1237 33.4736Z" fill="#01589A" stroke="#01589A" stroke-width="0.0008"/>
</g>
<defs>
<clipPath id="clip0_4121_5922">
<rect width="80" height="80" fill="white" transform="translate(0 0.5)"/>
</clipPath>
</defs>
</svg>
