<svg width="48" height="48" viewBox="0 0 48 48" fill="none" xmlns="http://www.w3.org/2000/svg">
<path d="M4.00391 23.998H32.0039M32.0039 23.998L25.0039 17.998M32.0039 23.998L25.0039 29.998" stroke="#01589A" stroke-width="4" stroke-linecap="round" stroke-linejoin="round"/>
<path d="M18.0039 14C18.0281 9.64994 18.221 7.29412 19.7578 5.75736C21.5152 4 24.3436 4 30.0004 4H32.0004C37.6572 4 40.4858 4 42.243 5.75736C44.0004 7.51472 44.0004 10.3431 44.0004 16V32C44.0004 37.6568 44.0004 40.4852 42.243 42.2426C40.7062 43.7794 38.3504 43.9724 34 43.9966M18.0039 34C18.0281 38.35 18.221 40.7058 19.7578 42.2426C21.0404 43.5252 22.8934 43.8718 26 43.9654" stroke="#01589A" stroke-width="4" stroke-linecap="round"/>
</svg>
