<svg width="81" height="81" viewBox="0 0 81 81" fill="none" xmlns="http://www.w3.org/2000/svg">
<g clip-path="url(#clip0_4171_7951)">
<path d="M57.6942 59.6041C53.5602 58.0854 49.9897 56.774 49.6016 53.0376C49.422 51.3151 49.5681 49.2904 50.0238 47.1771C51.4525 45.6462 52.6362 43.4371 53.8494 40.0379C56.2647 39.1074 57.8041 37.0392 58.5539 33.7188C58.9384 32.0181 58.3886 30.2699 57.0453 28.9052C57.1661 26.8418 57.0602 26.729 56.9825 26.6465L56.8978 26.5627H24.1716V28.8931C22.6252 30.3173 22.045 31.9404 22.4469 33.7188C23.1959 37.0379 24.7356 39.1063 27.1531 40.0379C28.3659 43.437 29.5487 45.6449 30.9756 47.1746C31.2975 48.6618 31.6253 50.8637 31.3991 53.0376C31.0109 56.774 27.4403 58.0854 23.3061 59.6041C17.6311 61.6882 11.1992 64.0513 11.1992 73.4543C11.1992 76.3804 20.2897 80.5001 40.5002 80.5001C60.7106 80.5001 69.8011 76.3804 69.8011 73.4543C69.8011 64.0515 63.3692 61.6884 57.6942 59.6041ZM37.0483 76.2154L32.2222 56.6126L38.0769 59.0498L37.7172 62.2779L38.7441 62.2548L37.0483 76.2154ZM43.7972 62.2779L43.4375 59.0498L49.2922 56.6126L44.4661 76.2154L42.7702 62.2548L43.7972 62.2779Z" fill="#4182B3"/>
<path d="M14.7317 13.4342L23.3042 17.2045V22.8916H58.0948V17.2045L61.5941 15.6652V23.6705C60.8519 23.7881 60.2833 24.4092 60.2833 25.1541C60.2833 25.8019 60.7116 26.3634 61.3308 26.5686L60.3342 32.8525C60.2684 33.2686 60.3873 33.6895 60.6594 34.0075C60.9311 34.3266 61.3281 34.5097 61.7488 34.5097H64.3725C64.7931 34.5097 65.1902 34.3266 65.4613 34.0075C65.7339 33.6897 65.8528 33.2687 65.787 32.8525L64.7911 26.5686C65.4113 26.3636 65.8402 25.8019 65.8402 25.1541C65.8402 24.4092 65.2709 23.7881 64.5281 23.6705V14.3756L66.6666 13.4355C67.0878 13.2523 67.3602 12.8434 67.3602 12.3958C67.3602 11.9505 67.0884 11.543 66.6675 11.3573L43.1455 1.01313C42.373 0.672188 41.55 0.5 40.6989 0.5C39.848 0.5 39.0252 0.672188 38.2533 1.01313L14.7314 11.3573C14.3108 11.543 14.0391 11.9505 14.0391 12.3958C14.0389 12.8447 14.3112 13.2522 14.7317 13.4342Z" fill="#4182B3"/>
</g>
<defs>
<clipPath id="clip0_4171_7951">
<rect width="80" height="80" fill="white" transform="translate(0.5 0.5)"/>
</clipPath>
</defs>
</svg>
